{"title":"The Block - S12E26 - Tassie Road Trip Challenge","uid":15961806,"size":1127680803,"categoryP":"video","categoryS":"tv_shows","magnet":"?xt=urn:btih:800230b17fc9c3de8bd00bac7f22bada0c4ebf79&amp;dn=The+Block+-+S12E26+-+Tassie+Road+Trip+Challenge&amp;tr=udp%3A%2F%2Ftracker.leechers-paradise.org%3A6969&amp;tr=udp%3A%2F%2Fzer0day.ch%3A1337&amp;tr=udp%3A%2F%2Fopen.demonii.com%3A1337&amp;tr=udp%3A%2F%2Ftracker.coppersurfer.tk%3A6969&amp;tr=udp%3A%2F%2Fexodus.desync.com%3A6969","seeders":10,"leechers":4,"uploader":"Bullrout","files":1,"time":1475671386,"description":"The Block - S12E26 - Tassie Road Trip Challenge\r\n\r\nThe teams arrive in Devonport after a night on the Spirit of Tasmania. They meet Scotty and Shelley for a challenge where they must design a table for their terraces. It's an opportunity to win some rare and expensive Tasmanian timber.\r\n\r\nComplete name                            : The Block - S12E26 - Tassie Road Trip Challenge.mkv\r\nFormat                                   : Matroska\r\nFormat version                           : Version 4 / Version 2\r\nFile size                                : 1.05 GiB\r\nDuration                                 : 45 min 37 s\r\nOverall bit rate mode                    : Variable\r\nOverall bit rate                         : 3 296 kb/s\r\nEncoded date                             : UTC 2016-10-05 10:29:20\r\nWriting application                      : mkvmerge v9.4.2 ('So High') 64bit\r\nWriting library                          : libebml v1.3.4 + libmatroska v1.4.5\r\n\r\nVideo\r\nID                                       : 2\r\nFormat                                   : AVC\r\nFormat/Info                              : Advanced Video Codec\r\nFormat profile                           :   \r\nFormat settings, CABAC                   : Yes\r\nFormat settings, ReFrames                : 3 frames\r\nCodec ID                                 : V_MPEG4/ISO/AVC\r\nDuration                                 : 45 min 37 s\r\nBit rate mode                            : Variable\r\nBit rate                                 : 2 910 kb/s\r\nMaximum bit rate                         : 3 000 kb/s\r\nWidth                                    : 1 280 pixels\r\nHeight                                   : 720 pixels\r\nDisplay aspect ratio                     : 16:9\r\nFrame rate mode                          : Constant\r\nFrame rate                               : 25.000 FPS\r\nStandard                                 : PAL\r\nColor space                              : YUV\r\nChroma subsampling                       : 4:2:0\r\nBit depth                                : 8 bits\r\nScan type                                : Progressive\r\nBits/(Pixel*Frame)                       : 0.126\r\nStream size                              : 950 MiB (88%)\r\nWriting library                          : x264 core 112\r\nDefault                                  : Yes\r\nForced                                   : No\r\nColor range                              : Limited\r\nColor primaries                          : BT.709\r\nTransfer characteristics                 : BT.709\r\nMatrix coefficients                      : BT.709\r\n\r\nAudio\r\nID                                       : 1\r\nFormat                                   : AC-3\r\nFormat/Info                              : Audio Coding 3\r\nMode extension                           : CM (complete main)\r\nFormat settings, Endianness              : Big\r\nCodec ID                                 : A_AC3\r\nDuration                                 : 45 min 37 s\r\nBit rate mode                            : Constant\r\nBit rate                                 : 384 kb/s\r\nChannel(s)                               : 6 channels\r\nChannel positions                        : Front: L C R, Side: L R, LFE\r\nSampling rate                            : 48.0 kHz\r\nFrame rate                               : 31.250 FPS (1536 spf)\r\nCompression mode                         : Lossy\r\nStream size                              : 125 MiB (12%)\r\nDefault                                  : Yes\r\nForced                                   : No","torrent":{"xt":"urn:btih:800230b17fc9c3de8bd00bac7f22bada0c4ebf79","amp;dn":"The+Block+-+S12E26+-+Tassie+Road+Trip+Challenge","amp;tr":["udp%3A%2F%2Ftracker.leechers-paradise.org%3A6969","udp%3A%2F%2Fzer0day.ch%3A1337","udp%3A%2F%2Fopen.demonii.com%3A1337","udp%3A%2F%2Ftracker.coppersurfer.tk%3A6969","udp%3A%2F%2Fexodus.desync.com%3A6969"],"infoHash":"800230b17fc9c3de8bd00bac7f22bada0c4ebf79","infoHashBuffer":{"type":"Buffer","data":[128,2,48,177,127,201,195,222,139,208,11,172,127,34,186,218,12,78,191,121]},"announce":[],"urlList":[]}}